<svg width="40" height="43" viewBox="0 0 40 43" fill="none" xmlns="http://www.w3.org/2000/svg">
<path d="M22.7188 13.7188C22.7188 9.05208 23.9062 5.6875 26.2812 3.625C28.7188 1.52083 32.625 0.46875 38 0.46875H39.9062V22.9375C39.9062 32.625 37.1354 38.8333 31.5938 41.5625C29.6562 42.5208 27.3333 43 24.625 43H22.7188V13.7188ZM15.3438 43C10.1146 43 6.21875 41.1771 3.65625 37.5312C1.28125 34.1562 0.09375 29.2917 0.09375 22.9375V0.46875H2C7.375 0.46875 11.2812 1.52083 13.7188 3.625C16.0938 5.6875 17.2812 9.05208 17.2812 13.7188V43H15.3438Z" fill="#FFFF6D"/>
</svg>
