<svg width="25" height="25" viewBox="0 0 40 40" fill="none" xmlns="http://www.w3.org/2000/svg">
<path d="M20.0002 36.0833C19.4835 36.0833 18.9835 36.0167 18.5668 35.8667C12.2002 33.6833 2.0835 25.9333 2.0835 14.4833C2.0835 8.64999 6.80016 3.91666 12.6002 3.91666C15.4168 3.91666 18.0502 5.01666 20.0002 6.98332C21.9502 5.01666 24.5835 3.91666 27.4002 3.91666C33.2002 3.91666 37.9168 8.66666 37.9168 14.4833C37.9168 25.95 27.8002 33.6833 21.4335 35.8667C21.0168 36.0167 20.5168 36.0833 20.0002 36.0833ZM12.6002 6.41666C8.1835 6.41666 4.5835 10.0333 4.5835 14.4833C4.5835 25.8667 15.5335 32.2 19.3835 33.5167C19.6835 33.6167 20.3335 33.6167 20.6335 33.5167C24.4668 32.2 35.4335 25.8833 35.4335 14.4833C35.4335 10.0333 31.8335 6.41666 27.4168 6.41666C24.8835 6.41666 22.5335 7.59999 21.0168 9.64999C20.5502 10.2833 19.4835 10.2833 19.0168 9.64999C17.4668 7.58332 15.1335 6.41666 12.6002 6.41666Z" fill="white"/>
</svg>
