<svg width="41" height="40" viewBox="0 0 41 40" fill="none" xmlns="http://www.w3.org/2000/svg">
<path d="M28 14.3833C27.3167 14.3833 26.75 13.8166 26.75 13.1333V10.8333C26.75 9.0833 26 7.3833 24.7 6.19997C23.3833 4.99997 21.6833 4.44997 19.8833 4.61664C16.8833 4.89997 14.25 7.96664 14.25 11.1666V12.7833C14.25 13.4666 13.6833 14.0333 13 14.0333C12.3167 14.0333 11.75 13.4666 11.75 12.7833V11.15C11.75 6.66664 15.3667 2.5333 19.65 2.11664C22.15 1.8833 24.55 2.66664 26.3833 4.34997C28.2 5.99997 29.25 8.36664 29.25 10.8333V13.1333C29.25 13.8166 28.6833 14.3833 28 14.3833Z" fill="#202020"/>
<path d="M25.4997 37.9167H15.4997C7.7997 37.9167 6.36636 34.3334 5.9997 30.85L4.7497 20.8667C4.56636 19.0667 4.4997 16.4834 6.2497 14.55C7.7497 12.8834 10.233 12.0834 13.833 12.0834H27.1664C30.783 12.0834 33.2664 12.9 34.7497 14.55C36.483 16.4834 36.433 19.0667 36.2497 20.8334L34.9997 30.85C34.633 34.3334 33.1997 37.9167 25.4997 37.9167ZM13.833 14.5834C11.0164 14.5834 9.08303 15.1334 8.0997 16.2334C7.28303 17.1334 7.01636 18.5167 7.23303 20.5834L8.48303 30.5667C8.76636 33.2334 9.4997 35.4334 15.4997 35.4334H25.4997C31.4997 35.4334 32.233 33.25 32.5164 30.6L33.7664 20.5834C33.983 18.55 33.7164 17.1667 32.8997 16.25C31.9164 15.1334 29.983 14.5834 27.1664 14.5834H13.833Z" fill="#202020"/>
<path d="M26.1999 21.9167C25.2666 21.9167 24.5166 21.1667 24.5166 20.25C24.5166 19.3334 25.2666 18.5834 26.1833 18.5834C27.0999 18.5834 27.8499 19.3334 27.8499 20.25C27.8499 21.1667 27.1166 21.9167 26.1999 21.9167Z" fill="#202020"/>
<path d="M14.5329 21.9167C13.5996 21.9167 12.8496 21.1667 12.8496 20.25C12.8496 19.3334 13.5996 18.5834 14.5163 18.5834C15.4329 18.5834 16.1829 19.3334 16.1829 20.25C16.1829 21.1667 15.4496 21.9167 14.5329 21.9167Z" fill="#202020"/>
</svg>
