<svg width="40" height="40" viewBox="0 0 50 51" fill="none" xmlns="http://www.w3.org/2000/svg">
<path d="M24.9998 45.6042C24.354 45.6042 23.729 45.5208 23.2082 45.3333C15.2498 42.6042 2.604 32.9167 2.604 18.6042C2.604 11.3125 8.49984 5.39584 15.7498 5.39584C19.2707 5.39584 22.5623 6.77084 24.9998 9.22918C27.4373 6.77084 30.729 5.39584 34.2498 5.39584C41.4998 5.39584 47.3957 11.3333 47.3957 18.6042C47.3957 32.9375 34.7498 42.6042 26.7915 45.3333C26.2707 45.5208 25.6457 45.6042 24.9998 45.6042ZM15.7498 8.52084C10.229 8.52084 5.729 13.0417 5.729 18.6042C5.729 32.8333 19.4165 40.75 24.229 42.3958C24.604 42.5208 25.4165 42.5208 25.7915 42.3958C30.5832 40.75 44.2915 32.8542 44.2915 18.6042C44.2915 13.0417 39.7915 8.52084 34.2707 8.52084C31.104 8.52084 28.1665 10 26.2707 12.5625C25.6873 13.3542 24.354 13.3542 23.7707 12.5625C21.8332 9.97918 18.9165 8.52084 15.7498 8.52084Z" fill="white"/>
</svg>
